<svg width="24" height="24" viewBox="0 0 24 24" xmlns="http://www.w3.org/2000/svg" aria-hidden="true">
  <path fill="#fff" d="M16.365 1.43c-1.092.063-2.366.77-3.109 1.682-.676.823-1.26 2.037-1.037 3.226 1.193.037 2.404-.67 3.109-1.58.7-.913 1.211-2.065 1.037-3.328Z"/>
  <path fill="#fff" d="M19.267 18.605c-.518 1.197-.778 1.736-1.456 2.804-.947 1.434-2.282 3.224-3.939 3.237-1.468.012-1.848-.953-3.436-.953-1.588 0-2.011.941-3.462.966-1.658.023-2.92-1.55-3.869-2.98C.992 18.493-.623 12.643 1.546 8.699c1.079-1.914 3.005-3.129 5.096-3.153 1.593-.03 3.094 1.052 3.436 1.052.345 0 2.357-1.299 3.967-1.11.675.028 2.574.274 3.79 2.06-.098.061-2.264 1.321-2.234 3.93.018 3.128 2.875 4.172 2.895 4.181-.025.071-.463 1.632-1.227 3.936Z"/>
</svg>
