<svg width="24" height="24" viewBox="0 0 24 24" xmlns="http://www.w3.org/2000/svg" aria-hidden="true">
  <path fill="#000" d="M16.365 12.371c-.027-2.39 1.956-3.543 2.045-3.6c-1.116-1.63-2.852-1.852-3.462-1.876c-1.47-.149-2.866.868-3.61.868c-.744 0-1.896-.848-3.118-.825c-1.6.023-3.075.936-3.896 2.373c-1.653 2.871-.42 7.103 1.186 9.43c.78 1.125 1.71 2.385 2.94 2.339c1.186-.046 1.635-.757 3.07-.757c1.433 0 1.843.757 3.103.73c1.284-.023 2.097-1.148 2.873-2.276c.92-1.34 1.297-2.64 1.32-2.705c-.03-.014-2.534-.974-2.553-3.402Z"/>
</svg>
